<?xml version="1.0" encoding="UTF-8"?>
<!DOCTYPE svg PUBLIC "-//W3C//DTD SVG 1.1//EN" "http://www.w3.org/Graphics/SVG/1.1/DTD/svg11.dtd">
<!-- Creator: CorelDRAW -->
<svg xmlns="http://www.w3.org/2000/svg" xml:space="preserve" width="96.9934mm" height="45.3703mm" version="1.1" style="shape-rendering:geometricPrecision; text-rendering:geometricPrecision; image-rendering:optimizeQuality; fill-rule:evenodd; clip-rule:evenodd"
viewBox="0 0 9638.68 4508.66"
 xmlns:xlink="http://www.w3.org/1999/xlink"
 xmlns:xodm="http://www.corel.com/coreldraw/odm/2003">
 <defs>
  <style type="text/css">
   <![CDATA[
    .str0 {stroke:#12014A;stroke-width:19.87;stroke-miterlimit:22.9256}
    .fil3 {fill:none}
    .fil4 {fill:#12014A}
    .fil0 {fill:white}
    .fil7 {fill:#12014A;fill-rule:nonzero}
    .fil6 {fill:#4F7AC8;fill-rule:nonzero}
    .fil5 {fill:#98B1DF;fill-rule:nonzero}
    .fil1 {fill:#12014A;fill-opacity:0.180392}
    .fil2 {fill:#370B84;fill-opacity:0.180392}
   ]]>
  </style>
    <clipPath id="id0">
     <path d="M-0 38.47l9496.88 0 0 4470.19 -9496.88 0 0 -4470.19z"/>
    </clipPath>
   <clipPath id="id1">
    <path d="M539.22 625.64l2858.25 0c313.59,0 514.8,-615.71 1473.41,-615.71 792.56,0 960.89,615.71 1281.91,615.71l3007.32 0c211.33,0 384.23,172.91 384.23,384.22l0 2978.52c0,211.32 -172.91,384.22 -384.23,384.22l-8620.9 0c-211.32,0 -384.23,-172.89 -384.23,-384.22l0 -2978.52c0,-211.33 172.9,-384.22 384.23,-384.22z"/>
   </clipPath>
 </defs>
 <g id="Camada_x0020_1">
  <metadata id="CorelCorpID_0Corel-Layer"/>
  <g id="_2724845124624">
   <g style="clip-path:url(#id0)">
    <image x="-0" y="38.47" width="9496.88" height="4470.19" xlink:href="AllFin - Trabalho Neto 2_Images\AllFin - Trabalho Neto 2_ImgID1.png"/>
   </g>
  </g>
  <path class="fil0" d="M539.22 625.64l2858.25 0c313.59,0 514.8,-615.71 1473.41,-615.71 792.56,0 960.89,615.71 1281.91,615.71l3007.32 0c211.33,0 384.23,172.91 384.23,384.22l0 2978.52c0,211.32 -172.91,384.22 -384.23,384.22l-8620.9 0c-211.32,0 -384.23,-172.89 -384.23,-384.22l0 -2978.52c0,-211.33 172.9,-384.22 384.23,-384.22z"/>
  <g style="clip-path:url(#id1)">
   <g id="_2724845135712">
    <g>
     <path id="_1" class="fil1" d="M10613.28 3007.84l0.01 -1001.42c-0.01,-194.14 -79.4,-370.59 -207.34,-498.52 -127.94,-127.95 -304.41,-207.36 -498.53,-207.35l-1001.42 0c-194.12,-0.02 -370.58,79.41 -498.52,207.34l459.74 459.74 1079 0 -0.01 1079.01 -1079 -0.01 -459.73 459.74c127.94,127.93 304.39,207.34 498.52,207.35l1001.43 -0.01c194.11,0 370.58,-79.4 498.51,-207.35 127.94,-127.93 207.36,-304.4 207.34,-498.51z"/>
     <path class="fil2" d="M7827 221.57l1001.43 0c194.13,-0.01 370.59,79.41 498.52,207.33l-459.73 459.75 -1078.99 0.01 -0.01 1078.99 1079 0.01 459.73 459.73c-127.93,127.93 -304.39,207.35 -498.51,207.34l-1001.42 0.01c-194.13,-0.01 -370.59,-79.4 -498.54,-207.35 -127.92,-127.93 -207.34,-304.4 -207.33,-498.52l-0.01 -1001.43c0,-194.12 79.41,-370.58 207.34,-498.53 127.94,-127.92 304.42,-207.35 498.52,-207.33z"/>
    </g>
   </g>
  </g>
  <path class="fil3 str0" d="M539.22 625.64l2858.25 0c313.59,0 514.8,-615.71 1473.41,-615.71 792.56,0 960.89,615.71 1281.91,615.71l3007.32 0c211.33,0 384.23,172.91 384.23,384.22l0 2978.52c0,211.32 -172.91,384.22 -384.23,384.22l-8620.9 0c-211.32,0 -384.23,-172.89 -384.23,-384.22l0 -2978.52c0,-211.33 172.9,-384.22 384.23,-384.22z"/>
  <path class="fil4" d="M4524.74 322.4c400.14,-231.04 249.95,-230.87 649.85,0 14.65,8.46 19.72,27.36 11.26,42.02 0,0 -0.01,0 -0.01,0 -8.46,14.66 -27.36,19.72 -42.01,11.26 -346.78,-200.2 -241.56,-200.2 -588.34,0 -14.65,8.46 -33.55,3.4 -42.01,-11.26 0,0 -0.01,0 -0.01,0 -8.46,-14.66 -3.39,-33.56 11.26,-42.02z"/>
  <path class="fil5" d="M9193.61 4359.89c-0.89,2.48 -157.62,5.48 -158.74,7.97l-267.12 0 -16.26 -0.06 -61.91 -0.19 -700.02 0 -57.54 -0.08 -7.15 -0.01 -95.98 -0.11 -43.77 -0.06 -538.93 0 -225.1 -0.24 -407.07 0c0,0 -0.67,-2.01 -2.02,-6l-0.22 -0.5c0,0 -0.23,-0.5 -0.23,-0.74 -0.89,-2.01 -471.11,-992.6 185.96,-1172.62 251.5,-68.91 358.3,-103.35 620.13,-437.54 221.61,-282.84 1001.03,-131.65 1222.01,92.17 28.95,29.36 277.14,211.94 173.28,420.71 -65.58,131.79 127.98,164.5 225.11,172.19 332.18,26.26 157.82,920.1 155.56,925.1z"/>
  <path class="fil6" d="M5425.93 4362.69c0.58,1.61 102.19,3.56 102.91,5.17l173.19 0 10.54 -0.04 40.14 -0.12 453.86 0 37.31 -0.05 4.63 -0.01 62.23 -0.07 28.38 -0.04 349.41 0 145.95 -0.16 263.92 0c0,0 0.43,-1.29 1.31,-3.89l0.14 -0.33c0,0 0.15,-0.32 0.15,-0.48 0.58,-1.29 305.44,-643.55 -120.57,-760.27 -163.05,-44.68 -232.3,-67.01 -402.06,-283.67 -143.68,-183.39 -649.02,-85.35 -792.28,59.75 -18.77,19.03 -179.69,137.42 -112.35,272.76 42.52,85.45 -82.98,106.67 -145.95,111.65 -215.36,17.02 -102.32,596.55 -100.86,599.79z"/>
  <g id="_2724845092272">
   <path class="fil6" d="M9214.28 4456.38l0.61 -3.6c84.68,-4.33 419.69,29.62 418.26,-75.62 -1.56,-115.6 -120.09,-263.8 -244.86,-432.4 2.46,-0.26 5.94,-4.06 14.55,-11.39 2.69,-2.4 -31.43,-44.4 -34.27,-48.74 -19.48,-29.89 -15.9,-29.62 -33.5,-16.64 -42.52,-90.17 81.34,-133.65 28.81,-279.27 37.34,-93.16 -45.79,-175.23 -178.06,-138.15 -16.17,-5.73 -33.64,-5.58 -42.18,7.57 -5.4,8.43 -20.19,-5.59 -49.65,3.67 -20.63,6.48 -14.85,19.86 -27.5,31.49 -3.9,3.63 -30.87,18.4 -31.77,42.11 -11.52,9.62 -23.13,20.01 -35.01,31.32 -4.15,-0.7 -8.34,-1.05 -12.53,-1.05 -39.62,0 -71.73,30 -71.73,67.04 0,7.17 1.24,14.29 3.63,21.05 -2.24,3.08 -4.4,6.17 -6.53,9.35l-50.38 212.94c-53.88,109.41 -136.57,4.8 -246.03,-47.54 -2.48,4.88 -4.93,9.6 -7.32,14.23l-152.75 -75.42c-42.53,-28.08 -141.31,-98.34 -143.38,-101.86 0,-0.06 -0.02,-0.1 -0.02,-0.17 0,-0.06 0.02,-0.1 0.02,-0.17l31.9 -9.15c40.71,-8.07 112.89,-19.05 171.54,-26.42 21.71,-2.69 145.44,-26.71 201.38,-44.17 24.26,1.98 67.87,-10.92 93.01,-9.87 31.09,1.34 61.22,-26.09 72.4,-52.92 5.37,-12.71 21.72,-40.4 41.12,-71.68 28.82,-18.38 87.96,-52.17 74.74,-78.41 -3.31,-6.53 -11.16,-7.9 -20.87,-6.47 12.89,-20.1 23.47,-36.61 28.76,-45.3 29.77,-49.09 28.83,-56.57 -3.45,-55.92 -25.27,0.45 -78.91,1.83 -91.56,3.77 -17.12,2.7 -19.73,5 -45.79,38.3 -2.91,3.73 -5.87,7.62 -8.88,11.71l-0.24 0c-55.85,9.07 -74.69,11.52 -105.24,66 -7.41,13.2 -12.59,22.04 -16.84,29.96 -144.71,4.61 -380.47,32.32 -445.48,42.9 -107.75,17.31 -142.3,3.86 -216.91,78.97 -80.78,81.4 -4.87,213.36 37.89,252.94 14.28,13.23 123.69,125.48 187.44,187.21 -35.41,-1.07 -71.75,-2.97 -109.14,-6.17 -212.38,-18.21 -340.08,-34.52 -340.08,-34.52l-0.34 5.78c-92.89,-138 -128.82,-234.03 -271.74,-381 -108.68,-111.84 -277.06,-51.18 -392.16,66.61 -142.76,146.09 -292.65,367.26 -397.45,527.21 -219.89,29.35 -423.73,50.58 -576.39,50.58 0,9.5 -0.14,19.14 -0.4,28.81 -24.38,2.69 -42.14,4.69 -42.14,4.69 -1.48,6.32 -3.58,12.53 -6.23,18.44 1.28,-16.64 1.89,-27.43 1.49,-28.04 -71.31,-108.68 -33.9,-299.26 -167.57,-295.32 -17.6,0.51 -57.03,492.53 -64.93,528.27 -1.34,10.54 206.88,9.51 212.77,0.9 0.19,-0.28 1.81,-16.68 4.06,-40.68 13.85,1.1 32.34,2.18 52.29,3.23 -0.42,10.75 -0.63,21.07 -0.63,31l1715.24 0 0.32 -1.53 371.7 -5.94 928.01 7.47zm93.26 -250.47c-0.88,-0.55 -32.11,-2.69 -49.69,-3.86 0.51,-3.28 0.86,-5.57 0.99,-6.63 0,0 -146.98,-62.97 -193,-96.25 -25.86,-18.74 -53.29,-35.59 -81.74,-50.13 46.87,-49.56 103.08,-120.04 149.72,-180.05 6.44,27.48 27.73,48.34 40.84,76.45 1.3,2.69 6.84,12.25 14.95,25.96 2.02,3.6 4.52,7.75 6.93,11.64 35.37,59.44 101.92,170.91 115.81,210.44 -8.57,-19.26 -16.15,-35.01 -18.35,-37.98l20.87 48.97c-0.17,3.75 -2.38,4.52 -7.33,1.45zm-2052.37 -121.9l82.53 -10.37 -84.59 12.88 2.06 -2.5z"/>
   <path class="fil7" d="M9218.93 4461.93l0.65 -3.82c16.78,-0.57 41.83,0 70.25,0.75 27.45,0.65 58.33,1.4 90.12,1.4 97.79,0 203.84,-7.11 242.83,-45.78 10.13,-9.48 15.9,-22.76 15.9,-36.64 0,-0.28 -0.01,-0.59 -0.01,-0.85 -1.42,-107.18 -99.65,-238.88 -213.1,-391.41 -9.64,-12.93 -19.42,-26.1 -29.23,-39.35 1.21,-0.99 2.53,-2.16 4.07,-3.53 1.53,-1.37 3.63,-3.21 6,-5.23 5.01,-4.28 0.99,-10.36 -7.86,-22.6 -5.74,-8.08 -13.1,-17.43 -18.48,-24.24 -3.23,-4.17 -6.3,-8.08 -6.9,-9.02 -2.26,-3.48 -4.19,-6.52 -5.89,-9.21 -7.7,-12.06 -10.77,-17.08 -16.65,-18.13 -4.47,-0.81 -8.08,1.32 -13.28,5.12 -14.03,-35.64 -0.54,-63.62 15.73,-97.29 21.11,-43.64 44.95,-93.03 16.67,-173.29 9.08,-23.54 11.15,-47.27 5.53,-69.68 -9.7,-38.47 -40.41,-66.93 -84.47,-78.11 -32.32,-8.08 -67.76,-6.71 -105.04,3.69 -5.77,-1.94 -11.83,-3.05 -17.92,-3.25 -12.93,-0.19 -22.79,4.5 -28.87,13.84 -0.59,0.04 -1.18,0.06 -1.78,0.06 -2.01,0 -4.02,-0.25 -5.98,-0.74 -5.17,-1.08 -10.46,-1.64 -15.76,-1.64 -7.81,0 -15.6,1.21 -23.05,3.56 -14.87,4.68 -18.52,13.09 -21.75,20.49 -1.64,4.61 -4.32,8.8 -7.81,12.23 -0.38,0.35 -1.7,1.29 -2.88,2.13 -8.6,6.11 -28.28,20.14 -30.47,41.45 -10.48,8.79 -20.94,18.16 -31.35,28.06 -3.56,-0.47 -7.17,-0.73 -10.77,-0.73 -42.58,0 -77.25,32.57 -77.25,72.56 0.01,6.82 1.04,13.6 3.05,20.11 -29.95,41.86 -44.47,83.84 -42.93,123.54 -22.06,32.06 -17.32,70.49 -8.08,99.66 -4.99,7.29 -10.77,14.84 -17.32,23.13 -8.08,10.32 -17.13,21.97 -25.99,35.28l-2.86 4.34 -199.55 -98.63 4.74 -9.21c11.24,-21.87 40.78,-48.22 72.06,-76.12 57.15,-50.96 121.68,-108.52 122.93,-173.86 31.29,-1.91 60.63,-29.12 71.91,-56.27 5.1,-12.22 21.15,-39.32 40.08,-69.84l7.01 -4.38c33.05,-20.72 82.99,-52.04 68.63,-80.45 -3.04,-5.81 -8.96,-9.54 -15.51,-9.75 10.44,-16.36 18.66,-29.2 23.18,-36.69 18.69,-30.81 26.11,-46.22 20.58,-55.86 -4.22,-7.35 -14.14,-8.71 -28.82,-8.43 -21.06,0.35 -78.67,1.72 -92.33,3.85 -19.53,3.02 -23.05,6.79 -49.26,40.41 -2.47,3.18 -5.04,6.52 -7.62,9.99 -55.08,8.91 -75.71,12.28 -107.2,68.42 -2.91,5.2 -5.39,9.69 -7.76,13.73 -2.91,5.09 -5.39,9.45 -7.59,13.47 -148.57,4.98 -386.21,33.72 -443.04,42.85 -22.41,3.61 -41.75,5.9 -58.79,7.89 -64.99,7.68 -100.79,11.89 -161.15,72.72 -25.51,25.67 -38.03,58.04 -37.23,96.18 1.4,66.85 44.87,136.55 75.42,164.7 5.65,5.23 26.93,26.93 54.16,54.22 57.46,58.01 96.37,96.96 122.99,122.95 -30.79,-1.12 -62.25,-2.93 -94.61,-5.7 -209.85,-17.97 -338.62,-34.34 -339.88,-34.5l-2.16 -0.27c-24.49,-36.85 -45.12,-70.86 -65.43,-104.34 -51.36,-84.74 -99.89,-164.78 -201.27,-269.1 -39.13,-40.41 -87.29,-60.74 -143.07,-60.82l-0.3 0c-82.83,0 -178.76,47.62 -256.73,127.42 -142.43,145.77 -292.1,366.3 -396.77,526 -219.26,29.28 -420.57,50.14 -573.01,50.14l-5.39 0 0 5.53c0,7.86 -0.14,15.81 -0.3,23.81 -18.05,1.91 -31.75,3.5 -36.01,4.01 0,-5.4 -0.35,-6.2 -0.85,-6.96 -26.05,-39.64 -37.31,-90.3 -48.19,-139.32 -18.13,-81.51 -35.26,-158.56 -120.07,-158.56 -1.4,0 -2.69,0 -4.22,0 -6.71,0.19 -12.5,0.38 -28.26,134.16 -8.73,74.34 -18.07,169.68 -25.58,246.42 -7.38,75.42 -13.76,140.44 -16.33,152.01l0 0.49c-0.22,1.59 0,5.57 5.82,7.78 12.03,4.53 60.9,6.09 103.12,6.09l10.48 0c97.58,-0.63 101.59,-6.6 103.32,-9.16 0.54,-0.83 1.04,-1.59 4.49,-37.7 10.27,0.76 23.73,1.59 41.54,2.5 -0.3,8.86 -0.46,17.48 -0.46,25.8l0 5.4 1619.43 0 0 0 5.87 0 99.65 0 0.35 -1.62 367.14 -5.87 932.8 7.59zm-3059.35 -114.82c3.89,-43.66 6.2,-71.29 7.49,-88.88 2.47,-6.25 4.25,-11.01 5.39,-14.63 10.58,-1.23 21.28,-2.44 31.92,-3.58 -1.05,33.59 -3.35,67.84 -5.6,101.29 -1.83,27.34 -3.59,53.63 -4.55,78.11 -15.32,-0.83 -29.41,-1.67 -40.88,-2.44 1.56,-16.57 3.55,-39.27 6.24,-69.87zm56.08 -119.37c0,-5.73 0.22,-11.45 0.25,-17.16 150.1,-0.48 346.1,-20.65 559.5,-48.96l14.46 -1.91c145.12,-19.43 297.92,-42.48 449.55,-65.54l16.6 -2.52 24.24 -3.72c40.89,-6.23 81.29,-12.37 121.21,-18.4l11.58 -1.75c87.05,-13.14 171.19,-25.59 250.49,-36.57 1.34,1.5 2.69,2.96 3.9,4.25l5.79 -5.57c58.04,-8.08 113.45,-15.19 165.41,-21.26l-11.29 199.02c-25.29,3.48 -157.35,13.92 -307.05,24.94l-18.1 1.32c-148.39,10.77 -310.26,22.03 -400.76,27.36l-16.83 0.97c-25.48,1.43 -43.31,2.24 -50.79,2.24 -95.4,0 -206.72,5.01 -319.79,11.15l-13.71 0.76c-32.32,1.78 -64.91,3.64 -97.18,5.39 -83.97,4.79 -169.68,9.7 -250.24,12.98l-5.4 0.22 -5.52 0.22c-45.35,1.8 -88.88,3.01 -129.55,3.42 1.21,-19.98 2.24,-40.03 2.83,-59.84 0,-1.86 0,-3.7 0,-5.39l0.4 -5.63zm2612.33 -287.28c8.62,-12.98 17.18,-23.97 25.48,-34.63 4.63,-5.92 9.07,-11.64 13.14,-17.24 4.24,10.8 9.42,21.3 15.46,31.19l0.38 -0.24c-14.5,14.95 -23.76,41.85 -31.98,74.74 -13.96,-3.36 -28.03,-6.3 -42.2,-8.81 0.12,-7.68 1.91,-15.26 5.23,-22.19 4.69,-7.7 9.62,-15.35 14.58,-22.82l-0.08 0zm799.56 436.74c0,0.28 0.01,0.57 0.01,0.85 0,10.93 -4.58,21.37 -12.62,28.77 -48.47,47.81 -221.48,43.61 -324.93,41.1 -21.54,-0.54 -40.03,-0.97 -55.05,-0.97 -4.9,0 -9.4,0 -13.47,0l-3.1 0c1.07,-9.04 3.21,-26.8 5.92,-48.85 4.66,-37.9 11.02,-88.5 16.65,-129.48 3.7,-26.77 7.09,-49.42 9.48,-61.68l0.94 0 5.39 0.38 5.56 0.38c18.5,1.24 38.65,2.69 43.09,3.26 1.99,1.37 4.34,2.11 6.76,2.11 0.8,0 1.61,-0.08 2.4,-0.25 11.63,26.94 23.13,55.38 24.43,62.3l10.77 -1.99c-1.56,-8.49 -18.31,-49.59 -32.57,-81.78 -1.4,-4.03 -3.39,-8.94 -6.06,-14.9 -6.38,-14.19 -16.48,-33.85 -30,-58.44 -20.82,-37.9 -46.73,-81.87 -66.91,-115.82 8.74,-1.16 17.49,-2.92 26,-5.21 40.99,-10.39 113.69,-36.82 127.81,-68.76 3.32,4.21 6.45,8.63 9.31,13.16 2.69,4.09 4.53,7 7.52,8.08 10.77,14.35 21.22,28.57 31.61,42.55 112.53,151.24 209.74,281.62 211.14,385.19l-0.08 0zm-2016.11 -104.86c-160.48,9.24 -425.56,22.09 -550.05,26.94l-17.51 0.67c-22.95,0.86 -39.26,1.32 -46.65,1.32 -98.63,0 -205.27,6.47 -308.56,12.77l-3.23 0.19 -10.77 0.65c-108.74,6.63 -220.43,13.2 -321.3,11.92l-5.52 0 -5.53 0 -2.19 0.01c-40.4,-0.79 -65.64,3.09 -92.52,7.21 -11.72,1.78 -23.78,3.64 -37.7,5.23 0.65,-9.73 1.32,-19.53 1.94,-29.36 40.83,-0.38 84.71,-1.62 130.33,-3.4l5.39 -0.22 5.53 -0.24c80.8,-3.29 166.61,-8.08 250.75,-12.99 29.63,-1.69 59.26,-3.39 88.89,-5.03l13.73 -0.76c115.81,-6.33 229.9,-11.59 327.35,-11.59 4.47,0 18.22,-0.67 39.03,-1.86l17.02 -0.99c89.45,-5.39 267.99,-17.34 427.9,-28.88l22.79 -1.64c136.15,-9.91 254.55,-19.18 286.04,-23.27l-2.27 40.19c-11.23,1.02 -26.47,1.19 -38.11,1.29 -18.1,0.19 -35.2,0.36 -43.93,2.69 -4.33,1.16 -32.05,3.26 -74.44,5.93 -16.46,0.85 -35.5,1.99 -56.35,3.2l-0.08 0zm769.72 -155.4c3.85,0 7.62,0 11.42,0.21 15.21,0.44 29.95,1.46 43.82,2.69 29.49,2.88 50.99,0.83 66.88,-5.39 2.52,-0.95 5.02,-2.09 7.4,-3.36 2.09,-1.08 4.14,-2.31 6.09,-3.62 27.42,-18.85 31.53,-55.92 36.79,-102.96 0.83,-7.54 1.7,-15.35 2.69,-23.41 0.22,-1.83 0.46,-3.69 0.7,-5.55 0.25,-1.86 0.52,-3.67 0.79,-5.53 1.67,-11.92 3.77,-24.24 6.57,-36.87 3.19,-14.48 7.44,-28.71 12.58,-42.59 6.06,-16.14 13.8,-31.7 23.01,-46.31 0.62,-0.99 1.24,-1.99 1.91,-2.98l1.08 0.73 8.08 5.39 -1.18 1.86c-9.3,14.49 -17.07,30.08 -23.07,46.23 -8.67,24.07 -14.68,49.12 -17.89,74.52 -0.27,1.83 -0.54,3.69 -0.78,5.39l-0.73 5.53c-1.05,8.4 -1.97,16.67 -2.88,24.74 -4.93,44.25 -9.27,83.1 -34.53,105.64 -1.59,1.43 -3.26,2.69 -5.01,4.07 -1.75,1.37 -3.96,2.69 -6.09,3.96 -18.26,10.61 -44.65,15.1 -83.49,11.31 -14.14,-1.37 -29.2,-2.39 -44.71,-2.69 -3.75,0 -7.51,-0.16 -11.31,-0.19 -68.01,-0.43 -143.21,11.75 -191.48,57.56 -50.85,48.27 -54.79,108.17 -29.2,138.2 25.59,30.03 83.49,37.71 171.19,-29.01 21,-16.24 44.88,-28.58 70.33,-36.23 3.64,-1.08 7.24,-2.02 10.77,-2.88 64.02,-15.27 128.82,0.96 192.12,16.88 25.59,6.47 50.74,12.8 75.42,16.86 6.19,1.02 12.36,1.91 18.47,2.69 46.94,5.39 91.57,0.51 132.89,-30.3 73.58,-54.89 61.73,-107.74 42.42,-159.18 -0.86,-2.35 -1.78,-4.69 -2.69,-7.07l-2.7 -7.11 -0.65 -1.64c-5.91,-14.36 -11.16,-29.32 -15.37,-44.26 -2.75,-10.06 -4.17,-20.44 -4.17,-30.87 0,-0.4 0,-0.79 0,-1.19 0,-1.83 0.16,-3.64 0.33,-5.39 0.16,-1.75 0.4,-3.8 0.7,-5.68 0.25,-1.34 0.46,-2.69 0.76,-4.09l1.75 0.41 9.02 1.97c-0.3,1.45 -0.54,2.91 -0.76,4.36 -0.29,1.91 -0.51,3.83 -0.62,5.73 0,1.37 0,2.69 0,4.12 -0.22,22.3 9.05,46.03 18.85,70.88 1.51,3.81 2.99,7.63 4.47,11.48 0.89,2.32 1.78,4.63 2.69,6.95 0.91,2.32 1.65,4.55 2.45,6.85 17.91,50.82 25.7,106.49 -49.56,162.63 -49.13,36.66 -101.62,39.1 -156.67,30.27 -6.22,-0.99 -12.44,-2.13 -18.85,-3.37 -19.9,-3.98 -40.11,-9.04 -60.61,-14.22 -60.87,-15.29 -123.16,-30.95 -184.2,-17.34 -3.66,0.83 -7.35,1.78 -11.04,2.82 -24.9,7.14 -48.29,18.98 -68.75,34.84 -50.75,38.69 -92.77,53.36 -125.16,53.36 -27.48,0 -48.03,-10.53 -61.15,-25.97 -28.52,-33.48 -27.69,-98.63 29.98,-153.52 51.22,-48.45 130.22,-61.05 200.95,-60.37l-0.08 0zm745.75 -253.96c0.22,1.61 0.49,3.2 0.8,4.77 -44.63,57.37 -99.17,125.64 -144.9,174.5 -38.73,-19.34 -79.63,-34.58 -121.57,-45.29 8.08,-31.67 17,-58.17 30.28,-70.89 2.5,-0.46 9.29,-1.23 16.43,-2.07 46.93,-5.4 166.82,-19.33 219.04,-61.02l-0.08 0zm57.69 110.86c1.78,3.17 4.12,7.11 7.12,11.95l2.91 4.9c1.51,2.69 3.09,5.2 4.68,7.87 0.24,0.58 0.57,1.12 0.97,1.61 20.47,34.47 46.54,78.57 68.49,118.19 8.97,16.16 15.95,29.31 21.42,40.03l-0.68 0.54c1.97,2.5 9.43,18.39 17.97,37.7 0.54,1.59 0.91,2.88 1.18,3.94 -2.99,-0.65 -11.95,-1.48 -44.49,-3.67 0,-0.29 0,-0.56 0,-0.78l0.51 -4.15 -3.83 -1.64c-1.45,-0.62 -146.92,-63.1 -191.92,-95.64 -24.08,-17.44 -49.52,-33.25 -75.87,-47.07 43.82,-46.95 94.62,-110.44 138.5,-166.62 4.85,12.83 12.41,24.44 20.17,36.31 6.64,9.71 12.68,19.99 17.9,30.55 1.43,2.76 6.28,11.17 15.07,25.99l-0.09 0zm158.59 -216.53c-17.37,35.93 -33.89,70.03 -12.31,114.53l-1.26 0.29c0.22,0.89 5.39,9.05 11.72,18.37 -2.05,1.42 -4.28,3.18 -6.87,5.2 -19.13,14.9 -63.86,49.72 -147.63,59.98 -3.77,-6.47 -6.35,-10.96 -7.11,-12.61 -5.45,-11.04 -11.74,-21.8 -18.69,-31.96 -8.85,-13.6 -17.18,-26.37 -21.11,-40.91 -0.65,-2.33 -1.15,-4.69 -1.52,-7.07 -0.44,-2.66 -0.72,-5.39 -0.8,-8.08 0,-1.56 0,-3.15 0,-4.77 0,-1.94 0.22,-3.94 0.46,-5.98 0.24,-2.05 0.54,-3.88 0.91,-5.86 2.65,-12.11 7.22,-23.75 13.48,-34.45 2.69,-4.85 11.67,-11.95 22.71,-19.93l4.55 -3.26 4.47 -3.15 5.23 -3.66c7.24,-5.07 15,-10.5 22.81,-16.16 3.72,-2.75 7.42,-5.56 11.12,-8.44l0.91 -0.7 4.12 -3.29c1.45,-1.15 2.88,-2.35 4.28,-3.5l2.26 -1.92 1.95 -1.67c16.16,-14 30.41,-29.46 37.92,-46.05 3.78,-7.95 5.73,-16.66 5.73,-25.45 0,-0.21 0,-0.42 0,-0.63 -0.65,-26.55 8.08,-42.66 16.16,-46.41 1.19,-0.55 2.48,-0.83 3.79,-0.83 2.09,0 4.11,0.73 5.72,2.05 0.07,2.39 1.4,4.58 3.5,5.73 0.25,3.21 0.41,5.74 0.38,6.6 -0.19,7.54 -0.7,14.71 -1.53,21.55 -0.8,6.79 -2.05,13.6 -3.61,20.27 -3.87,15.94 -10.38,31.15 -19.26,44.94l9.29 5.95c12.79,-19.9 21.05,-42.49 24.05,-65.97 0.78,-5.39 1.31,-11.2 1.69,-17.1 0.19,-3.07 0.33,-6.19 0.41,-9.4 0,-2.69 -0.73,-12.25 -1.78,-24.54 0,-0.91 -0.16,-1.83 -0.24,-2.69 2.24,-4.44 6.03,-6.14 9.99,-7.89 1.27,-0.57 2.53,-1.16 3.75,-1.83 1.45,3.25 2.69,5.92 3.02,7l0 0.19c1.75,5.39 3.23,10.5 4.52,15.57 1.29,5.06 2.27,9.61 3.07,14.3 0,0.43 0,0.88 0.19,1.32 0.84,5.07 1.46,10.26 1.78,15.38 0.19,3.08 0.3,6.23 0.3,9.33 0,11.37 -1.32,22.7 -3.93,33.76l10.77 2.5c2.79,-11.97 4.21,-24.31 4.21,-36.62 0,-12.71 -1.51,-25.42 -4.48,-37.77 -1.08,-4.75 -2.36,-9.61 -3.84,-14.57 -0.59,-1.94 -1.21,-3.91 -1.86,-5.87 0,-0.27 -0.16,-0.54 -0.27,-0.8 -0.57,-1.75 -2.69,-6.54 -5.65,-13.04l0 -0.29 0.19 -0.3c1.58,-2.78 3.71,-5.23 6.25,-7.16 0.88,-0.72 1.99,-1.11 3.12,-1.13 1.97,0 5.04,2.69 7.71,9.99l0 0c1.91,5.2 3.58,10.27 5.06,15.19 20.82,69.6 -0.68,114.12 -19.8,153.71zm-421.49 -97.59c1.23,-1.72 2.47,-3.44 3.77,-5.17 1.83,-2.45 3.7,-4.9 5.65,-7.35 22,-27.46 47.59,-52.23 75.82,-73.31 1.97,-1.48 3.83,-2.69 5.39,-4.03 1.56,-1.35 3.91,-2.69 5.39,-3.8 1.48,-1.11 3.04,-1.97 4.17,-2.7 4.09,-2.45 8.17,-4.75 12.23,-6.87 4.83,8.78 11.24,16.66 18.85,23.18 -1.45,3.64 -2.69,7.06 -3.58,10.32 -0.7,2.45 -1.26,4.77 -1.72,7.01 -0.47,2.93 -0.72,5.9 -0.77,8.85 -0.13,1.32 -0.2,2.65 -0.2,3.97 0,7.86 2.37,15.54 6.78,22.05 1.55,2.17 3.37,4.17 5.38,5.92 1.6,1.44 3.32,2.75 5.13,3.91 0.91,0.57 1.8,1.1 2.69,1.59 5.39,25.02 32.96,35.23 47.97,40.8 2.39,0.89 5.23,1.95 6.81,2.69 3.05,21.79 8.75,31.79 15.84,37.44 1.71,-1.02 3.5,-2 5.39,-2.91 1.92,-0.99 3.91,-1.94 5.92,-2.69l0.28 0c9.61,-4.08 19.97,-6.19 30.43,-6.19 17.62,0 34.74,5.99 48.5,16.96l1.48 1.21 -3.23 2.7 -1.02 0.85c-1.45,1.21 -2.93,2.4 -4.41,3.59 -11.47,-9.19 -25.73,-14.2 -40.43,-14.2 -0.15,0 -0.31,0 -0.46,0 -5.91,0.01 -11.83,0.79 -17.54,2.27 -2.21,0.57 -4.38,1.25 -6.51,2.05 -0.94,0.35 -1.92,0.7 -2.86,1.1 -0.94,0.41 -2.52,1.15 -3.8,1.78 -14.39,6.81 -25.93,18.51 -32.57,32.98 -3.67,7.84 -5.58,16.39 -5.58,25.04 0,7.67 1.51,15.3 4.43,22.4 3.19,7.66 8,14.55 14.1,20.17 -0.57,2.1 -1.02,4.14 -1.4,6.17 -0.38,2.02 -0.73,4.2 -0.96,6.22 -0.25,2.02 -0.35,3.47 -0.46,5.17 -44.68,43.82 -171.73,58.61 -219.76,64.13 -9.86,1.13 -14.81,1.73 -17.56,2.27l2.3 -1.45c-6.88,-11.59 -12.6,-23.87 -16.99,-36.6 13.12,-20.63 19.87,-41.48 11.72,-70.03 -12.85,-44.9 -2.08,-92.71 31.92,-142.34 1.04,-1.68 2.26,-3.38 3.47,-5.16zm-1576.42 318.6c8.78,4.04 30.44,42.47 50.91,80.8l-117.35 17.83 -12.01 1.81c31.83,-38.17 59.39,-73.34 78.46,-100.44zm10.93 -5.06c0.36,-5.6 -6.84,-13.82 -30.05,-38.36 -10.53,-11.15 -26.48,-28.03 -27.8,-31.97l-10.77 1.86c0.99,5.84 9.64,15.48 30.65,37.7 7.35,7.76 17.37,18.34 22.95,25.21 -1.77,0.73 -3.29,1.97 -4.36,3.56 -21.81,31.1 -52.52,69.87 -86.35,110.08 -67.34,10.24 -135.05,20.5 -202.2,30.47 12.85,-13.48 49.32,-60.09 166.21,-220.86l9.75 -13.47c7.38,-10.05 14.11,-20.04 20.6,-29.63 32.03,-47.56 57.32,-85.1 124.49,-85.1 48.86,0 123.15,107.03 177.39,185.19 22.76,32.77 42.8,61.68 58.77,80.24 -63.51,9.07 -129.68,18.85 -197.62,29.17 -24.83,-46.38 -40.24,-72.96 -51.66,-84.08zm262.31 53.14c-16.16,-17.42 -37.7,-48.66 -62.83,-84.68 -58.74,-84.63 -131.97,-189.94 -186.46,-189.94 -73.05,0 -101.14,41.7 -133.65,89.99 -6.44,9.56 -13.12,19.47 -20.33,29.36 -1.84,2.47 -5.21,7.12 -9.81,13.47 -128.75,176.96 -162.44,218.67 -168.04,222.5 0.22,-0.14 0.46,-0.25 0.71,-0.32l2.16 6.25 -42.42 6.24c10.77,-10.18 43.98,-51.92 168.52,-223.12 4.55,-6.25 7.87,-10.77 9.67,-13.28l7.71 -10.56c42.14,-58.01 105.58,-145.26 180.67,-145.26l3.28 0c80.94,2.69 177.39,139.79 241.19,230.45 17.65,25.07 33.51,47.56 46.47,63.7 -12.18,1.73 -24.44,3.42 -36.83,5.2zm-1413.65 404.76c0,-1.86 0,-3.66 0.17,-5.55 0.16,-1.89 0.16,-3.69 0.21,-5.39 0.89,-22.03 2.4,-45.46 4.01,-69.81 15.01,-1.67 27.8,-3.62 40.16,-5.53 27.53,-4.2 51.31,-7.86 90.64,-7.09l2.44 0c1.83,0 3.7,0 5.53,0l5.39 0c98.5,1.24 207.04,-4.96 313.13,-11.39l14.14 -0.86 5.39 -0.35c104.13,-6.36 211.79,-12.93 311.12,-12.93 4.22,0 15.1,-0.33 31.21,-0.89l19.23 -0.73c129.95,-5.09 467.47,-20.79 620.8,-30.57 37.03,-2.38 63.32,-4.39 73.34,-5.82 1.19,-0.14 2.39,-0.36 3.56,-0.65 7.35,-1.97 24.57,-2.13 41.18,-2.29 15.19,0 27.64,-0.38 37.35,-1.21l-0.32 5.89 -0.63 10.97 -9.32 163.81 -1609.16 0c0.05,-6.36 0.22,-12.93 0.43,-19.64zm3143.85 -565.94c3.5,4.04 6.63,8.46 9.26,13.12 1.73,2.69 3.69,5.79 5.98,9.29 0.8,1.24 2.96,4.03 7.4,9.75 6.57,8.43 20.9,26.93 25.13,34.13l-3.4 2.99c-1.15,1.02 -2.32,2.05 -3.34,2.91 -6.75,-9.12 -13.51,-18.31 -20.28,-27.58 -2.69,-8.33 -9.29,-15.49 -15.1,-21.09 -0.19,-0.18 -0.39,-0.35 -0.6,-0.49l-0.76 -1.05c-4.04,-5.55 -7.72,-11.45 -10.93,-17.53 2.05,-1.7 4.28,-3.19 6.62,-4.44l0.01 -0.01zm-60.61 -413.52c39.95,10.16 67.82,35.72 76.47,70.03 1.83,7.65 2.77,15.52 2.77,23.38 0,9.92 -1.49,19.83 -4.39,29.31 -2.74,-4.09 -7.2,-6.72 -12.11,-7.12 -0.39,-0.03 -0.79,-0.05 -1.17,-0.05 -0.39,0 -0.79,0.02 -1.17,0.05 0.59,-8.54 -0.44,-16.54 -7.78,-23.59 -13.93,-13.47 -20.42,-28.52 -26.16,-41.94 -9.56,-22.33 -18.58,-43.42 -57.59,-43.42l-2.21 0c-5.53,0 -13.65,2.69 -21.54,5.39 -4.4,1.55 -8.91,2.87 -13.47,3.91 -4.82,-6.44 -10.94,-11.82 -17.95,-15.76 30.63,-6.65 59.74,-6.95 86.3,-0.19zm-415.91 343.79c0.85,4.96 2.02,9.95 3.4,14.8 2.11,6.51 3.19,13.34 3.19,20.2 0,11.36 -2.96,22.54 -8.58,32.42 -5.48,-20.95 -7.38,-45.43 1.99,-67.42zm-186.19 -48.8c-33.46,29.84 -62.36,55.59 -74.53,79.29l-4.82 9.4 -147.19 -72.55c-35.56,-23.57 -114.23,-78.75 -136.64,-96.14 24.46,-6.92 111.95,-21.25 194.17,-31.53 14.28,-1.78 71.84,-12.61 126.11,-24.86 35.5,-8.08 59.26,-14.25 75.42,-19.23 1.53,0 3.12,0 4.77,0 12.36,0 27.58,-2.53 43.09,-5.15 12.76,-2.42 25.82,-4.11 38.81,-4.92 -1.42,60.57 -63.93,116.43 -119.17,165.69zm58.41 -337.8l4.34 -7.67c2.32,-4.07 4.9,-8.6 7.81,-13.79 26.8,-47.81 42.82,-53.52 88.26,-61.12l7.72 -1.26 3.35 -0.57 1.99 -0.3 2.39 -0.35c4.52,-0.67 9.12,-1.04 13.7,-1.05 16.91,0 26.08,5.39 27.34,10.29 1.84,7.16 -10.29,19.86 -41.18,30.77 -1.21,0.41 -2.37,1 -3.42,1.75 -8.29,0.46 -17.72,1.13 -26.93,1.99 -2.39,0.22 -4.79,0.47 -7.14,0.74 -2.35,0.27 -4.8,0.54 -7.12,0.8 -6.89,0.79 -13.78,1.96 -20.55,3.45 -1.75,0.35 -3.27,1.41 -4.19,2.93 0.66,-1.08 1.71,-1.88 2.93,-2.21l1.05 10.99c1.31,-0.07 2.59,-0.48 3.72,-1.18 2.69,-0.6 5.65,-1.16 9.07,-1.7 2.27,-0.36 4.66,-0.71 7.19,-1.02 2.52,-0.33 4.71,-0.6 7.18,-0.89 17.73,-1.99 35.62,-3.21 53.37,-3.4 10.77,0.52 13.47,2.21 13.95,3.37 1.53,3.45 -2.42,21.12 -18.85,28.52 -4.17,1.89 -7.51,3.34 -10.24,4.52 -3.98,0.52 -10.77,1.21 -17.78,1.95l-6.68 0.67c-15.54,1.59 -29.18,3.02 -39.21,4.31l-2.51 0.32 -4.63 0.68c-2.99,0.46 -5.39,0.91 -7.21,1.35l-1.29 0.32c-0.96,0.24 -1.98,0.45 -2.98,0.61 -6.78,1.16 -13.47,3.03 -19.87,5.55l4.12 10.24c3.92,-1.56 7.99,-2.83 12.11,-3.75 2.16,-0.51 4.09,-0.86 5.68,-1.15l1.59 -0.33c0.82,-0.14 1.65,-0.33 2.45,-0.57 1.65,-0.43 3.35,-0.78 5.04,-1.02 10.44,-1.75 31.62,-3.91 47.86,-5.57l4.5 -0.46 0 0 5.55 -0.57c0.53,0.98 1.28,1.83 2.21,2.45l0.16 0.13c-0.03,2.62 -0.74,5.2 -2.05,7.46 -0.67,1.51 -1.53,3.23 -2.69,5.39 -2.35,3.83 -5.61,7 -9.5,9.21 -1.21,0.78 -2.46,1.49 -3.75,2.13 -2.94,1.5 -5.99,2.82 -9.1,3.91 -2.88,1.05 -5.73,1.97 -8.43,2.69 -14.22,-0.32 -33.35,7.35 -49.21,13.92l-1.78 0.74 -6.71 2.69c-3.04,1.23 -5.89,2.32 -8.08,3.01 -1.01,0.37 -2.07,0.63 -3.13,0.79l-1.26 0 -2 1.16 2.69 4.55 1.24 2.21 0.25 3.01c0.59,0 1.23,-0.16 1.94,-0.29 2.66,-0.6 5.3,-1.42 7.83,-2.43 3.15,-1.18 6.93,-2.69 11.53,-4.63 8.54,-3.53 18.85,-7.83 28.52,-10.77 0.78,1.15 1.84,2.09 3.08,2.69 5.62,2.94 5.39,5.56 5.39,6.66 -1.62,15.27 -49.75,42.71 -59.87,45.51 -9.41,2.71 -18.07,7.65 -25.18,14.39 -4.79,4.25 -8.42,9.66 -10.53,15.7 -0.42,1.42 -0.63,2.9 -0.63,4.38 0,0.33 0.01,0.67 0.03,1 0.04,0.64 0.13,1.28 0.27,1.91 -0.92,2.63 -1.4,5.41 -1.4,8.2 0,0.4 0.01,0.79 0.03,1.17 -1.13,-0.77 -2.22,-1.62 -3.23,-2.53 -1.46,-1.36 -2.78,-2.89 -3.91,-4.55 -1.27,-1.77 -2.34,-3.69 -3.16,-5.7 -8.85,-22.33 7.44,-58.47 17.19,-80.08 3.01,-6.65 5.39,-11.91 6.65,-15.81 7.46,-22.84 11.75,-33.4 18.02,-45.4 1.68,-3.37 3.67,-6.98 5.95,-11.02l0.11 0zm249.63 -33.78c8.4,16.65 -25.89,41.27 -52.25,58.26 13.47,-21.55 27.69,-43.53 39.62,-62.17 6.05,-0.62 10.71,0.33 12.52,3.91l0.11 0zm-825.48 464.88c-27.2,-27.45 -48.66,-49.13 -54.52,-54.55 -28.98,-26.93 -70.41,-93.21 -71.75,-156.83 -0.73,-35.01 10.77,-64.64 34.02,-88.16 57.64,-58.04 90.04,-61.95 154.61,-69.46 17.15,-2.02 36.63,-4.3 59.25,-8.08 67.93,-10.93 292.56,-37.09 435.42,-42.58 -6.26,13.43 -11.64,27.35 -15.91,41.54 -1.07,3.32 -3.47,8.6 -6.22,14.68 -10.44,23.22 -27.95,61.95 -17.37,88.72 2.23,5.65 5.77,10.69 10.33,14.7 0.84,1.82 2.05,3.46 3.53,4.82 -57.86,15.79 -159.46,36.17 -184.48,39.3 -43.98,5.39 -93.65,12.74 -132.86,19.37 -16.43,2.69 -29.12,5.09 -39.02,7.08 -12.85,1.43 -62.63,9.62 -89.32,25.84l5.74 9.42c12.71,-7.7 31.26,-13.47 48.05,-17.53 0.71,1.21 3.64,5.39 81.53,60 25.46,17.89 43.1,30.06 55.51,38.36l-143.18 202.36 1.13 2.37 -2.99 0c-39.29,-38.25 -95.21,-94.72 -131.49,-131.35zm-980.39 -208.88c75.95,-77.7 168.93,-124.09 248.84,-124.09l0.27 0.01c52.71,0 98.19,19.42 135.18,57.47 100.49,103.43 148.69,182.94 199.74,267.11 21.54,35.72 43.71,72.08 70.38,111.78l-3.07 54.03c-53.87,6.24 -111.1,13.7 -171.33,22.03 -13.3,-15.84 -30.65,-40.41 -50.22,-68.28 -68.99,-97.98 -163.44,-232.17 -249.87,-235.13 -82.37,-2.69 -149.13,88.88 -193.28,149.75l-7.67 10.53c-1.81,2.45 -5.15,7.03 -9.67,13.28 -128.83,177.1 -162.55,218.81 -168.15,222.64 0.23,-0.13 0.46,-0.24 0.71,-0.33l2.69 8.09c-65.89,9.61 -131.07,18.85 -194.79,27.47 104.18,-158.58 250.84,-373.68 390.22,-516.35l0.03 0z"/>
  </g>
 </g>
</svg>
